<svg xmlns="http://www.w3.org/2000/svg" viewBox="0 0 928 106" role="img" aria-label="VELTRIX"><path fill="#ff0033" fill-rule="evenodd" d="M0,0 1,1 28,0 29,3 30,3 30,6 31,6 31,8 34,12 34,15 37,19 37,22 40,26 40,29 43,33 43,36 44,36 45,41 48,45 48,48 50,50 50,53 52,55 52,58 54,60 55,65 38,82 38,84 36,86 34,85 34,82 31,78 31,75 29,73 29,70 27,68 25,60 22,56 22,53 19,49 18,43 15,39 15,36 12,32 12,29 9,25 9,22 7,20 7,17 5,15 5,12 3,10 3,7 1,5ZM41,97 46,93 46,91 53,85 53,83 63,74 63,72 73,63 73,61 83,52 83,50 93,41 93,39 102,31 102,29 112,20 112,18 120,11 120,9 129,0 160,0 160,2 158,2 158,4 150,11 150,13 140,22 140,24 131,32 131,34 122,42 122,44 111,54 111,56 101,65 101,67 92,75 92,77 82,86 82,88 72,97 72,99 65,106 43,106 42,101 41,101ZM161,105 162,105 162,101 163,101 164,92 165,92 167,82 276,82 262,96 262,98 254,106 161,106ZM171,61 172,61 172,57 173,57 176,42 265,42 245,62 244,65 171,65ZM180,22 181,22 183,9 184,9 184,5 185,5 186,0 187,1 189,1 189,0 291,0 292,1 293,0 293,2 272,22 272,24 256,24 256,25 180,25ZM299,102 300,102 300,98 301,98 301,94 302,94 302,90 303,90 303,86 304,86 308,66 309,66 309,63 310,63 310,58 311,58 311,54 312,54 312,50 313,50 313,46 314,46 314,42 315,42 315,38 316,38 316,34 317,34 317,30 318,30 318,26 319,26 320,17 321,17 324,2 325,2 325,0 350,0 348,10 347,10 347,14 346,14 346,18 345,18 345,22 344,22 344,26 343,26 343,30 342,30 342,34 341,34 341,38 340,38 340,42 339,42 337,53 336,53 336,58 335,58 335,61 334,61 334,66 333,66 330,82 410,82 410,83 400,92 400,94 388,106 299,106ZM419,23 420,23 420,18 421,18 421,15 422,15 422,10 423,10 424,3 425,3 425,1 430,1 430,0 520,0 520,1 523,1 523,0 547,1 548,0 548,2 526,24 490,25 470,106 446,106 448,93 449,93 449,89 450,89 450,85 451,85 451,81 452,81 452,77 453,77 453,73 454,73 454,69 455,69 455,64 456,64 457,56 458,56 458,53 459,53 460,44 461,44 461,40 462,40 465,25 464,24 463,25 443,25 443,24 430,24 430,25 427,25 427,24 419,24ZM549,105 550,105 551,96 552,96 552,92 553,92 553,88 554,88 554,83 555,83 555,79 556,79 556,75 557,75 557,71 558,71 558,67 559,67 559,63 560,63 560,59 561,59 561,55 562,55 564,42 566,41 568,43 568,45 573,49 573,51 584,62 583,67 582,67 580,80 579,80 579,84 578,84 578,88 577,88 577,93 576,93 574,105 573,106 549,106ZM569,22 570,22 570,19 571,19 572,10 573,10 575,0 671,0 671,1 680,2 683,5 685,5 687,7 687,9 689,10 690,14 691,14 692,26 691,26 691,32 690,32 688,44 687,44 687,47 686,47 686,50 685,50 684,54 682,55 682,57 674,65 672,65 669,68 661,69 661,70 646,70 646,72 650,75 650,77 667,94 667,96 672,100 672,102 676,106 645,106 637,98 637,96 631,91 631,89 624,83 624,81 619,77 619,75 605,61 605,59 598,53 598,51 594,48 594,46 595,47 606,47 606,46 633,46 633,47 660,46 664,43 665,37 666,37 667,28 666,28 665,25 641,25 641,24 627,24 627,25 600,24 600,25 591,25 591,24 569,24ZM710,104 711,104 711,100 712,100 712,95 713,95 713,91 714,91 714,87 715,87 715,83 716,83 716,79 717,79 717,75 718,75 718,71 719,71 719,67 720,67 720,62 721,62 721,58 722,58 722,54 723,54 723,50 724,50 724,46 725,46 725,42 726,42 726,38 727,38 727,34 728,34 728,30 729,30 730,21 731,21 731,17 732,17 732,14 733,14 733,9 734,9 735,2 739,1 739,0 760,0 760,4 759,4 759,8 758,8 758,12 757,12 757,16 756,16 756,20 755,20 755,24 754,24 754,28 753,28 753,32 752,32 752,36 751,36 751,40 750,40 750,44 749,44 749,48 748,48 748,52 747,52 747,56 746,56 746,60 745,60 745,64 744,64 744,68 743,68 743,72 742,72 742,76 741,76 741,80 740,80 740,84 739,84 735,104 734,104 734,106 710,106ZM762,105 764,105 767,101 769,101 772,97 774,97 778,92 780,92 783,88 785,88 787,85 789,85 798,76 800,76 807,69 809,69 812,65 814,65 818,60 820,60 827,53 829,53 834,47 836,47 838,44 840,44 849,35 851,35 854,31 856,31 859,27 861,27 864,23 866,23 870,18 872,18 874,15 876,15 880,10 882,10 885,6 887,6 891,1 893,1 893,0 928,0 919,9 917,9 914,13 912,13 909,17 907,17 904,21 902,21 899,25 897,25 887,35 885,35 883,38 881,38 877,43 875,43 873,46 871,46 867,51 865,51 863,54 861,54 856,60 854,60 851,64 849,64 846,68 844,68 841,72 839,72 835,77 833,77 831,80 829,80 827,83 825,83 822,87 820,87 816,92 814,92 812,95 810,95 807,99 805,99 798,106 762,106ZM790,0 804,0 804,1 821,0 824,3 824,5 826,6 826,8 829,10 829,12 832,14 834,19 837,21 837,23 839,24 841,29 839,31 837,31 835,34 833,34 830,38 828,38 824,43 821,44 819,42 819,40 816,38 816,36 814,35 814,33 811,31 809,26 806,24 806,22 800,16 800,14 798,13 796,8 790,2ZM848,79 850,77 852,77 856,72 858,72 861,68 863,68 866,64 868,64 868,66 871,68 871,70 874,72 874,74 877,76 879,81 882,83 882,85 885,87 885,89 888,91 888,93 891,95 891,97 893,98 893,100 896,102 896,104 898,106 867,106 865,104 865,102 862,100 862,98 859,96 859,94 856,92 856,90 849,83Z"/></svg>
